<mxfile host="app.diagrams.net" modified="2024-05-24T10:34:17.616Z" agent="Mozilla/5.0 (X11; Linux x86_64) AppleWebKit/537.36 (KHTML, like Gecko) Chrome/124.0.0.0 Safari/537.36" etag="PjUajC-bR3R8UiP-VieV" version="24.3.1" type="github">
  <diagram name="第 1 页" id="lRwf6gAiUMX4nWtaz0HM">
    <mxGraphModel dx="1434" dy="786" grid="1" gridSize="10" guides="1" tooltips="1" connect="1" arrows="1" fold="1" page="1" pageScale="1" pageWidth="1169" pageHeight="1654" math="0" shadow="0">
      <root>
        <mxCell id="0" />
        <mxCell id="1" parent="0" />
        <mxCell id="mzcOnq8qJf74-Bhg__HV-13" style="edgeStyle=orthogonalEdgeStyle;rounded=0;orthogonalLoop=1;jettySize=auto;html=1;entryX=0.5;entryY=0;entryDx=0;entryDy=0;" edge="1" parent="1" source="mzcOnq8qJf74-Bhg__HV-8">
          <mxGeometry relative="1" as="geometry">
            <mxPoint x="225" y="400" as="targetPoint" />
          </mxGeometry>
        </mxCell>
        <mxCell id="mzcOnq8qJf74-Bhg__HV-8" value="head" style="text;html=1;align=center;verticalAlign=middle;whiteSpace=wrap;rounded=0;" vertex="1" parent="1">
          <mxGeometry x="195" y="326" width="60" height="30" as="geometry" />
        </mxCell>
        <mxCell id="mzcOnq8qJf74-Bhg__HV-15" value="" style="endArrow=none;html=1;rounded=0;exitX=1;exitY=0.5;exitDx=0;exitDy=0;entryX=0;entryY=0.5;entryDx=0;entryDy=0;" edge="1" parent="1">
          <mxGeometry width="50" height="50" relative="1" as="geometry">
            <mxPoint x="280" y="455" as="sourcePoint" />
            <mxPoint x="310" y="455" as="targetPoint" />
          </mxGeometry>
        </mxCell>
        <mxCell id="mzcOnq8qJf74-Bhg__HV-16" value="" style="endArrow=none;html=1;rounded=0;exitX=1;exitY=0.5;exitDx=0;exitDy=0;entryX=0;entryY=0.5;entryDx=0;entryDy=0;" edge="1" parent="1">
          <mxGeometry width="50" height="50" relative="1" as="geometry">
            <mxPoint x="420" y="455" as="sourcePoint" />
            <mxPoint x="450" y="455" as="targetPoint" />
          </mxGeometry>
        </mxCell>
        <mxCell id="mzcOnq8qJf74-Bhg__HV-17" value="" style="endArrow=none;html=1;rounded=0;exitX=0;exitY=0.5;exitDx=0;exitDy=0;entryX=1;entryY=0.5;entryDx=0;entryDy=0;" edge="1" parent="1">
          <mxGeometry width="50" height="50" relative="1" as="geometry">
            <mxPoint x="590" y="455" as="sourcePoint" />
            <mxPoint x="560" y="455" as="targetPoint" />
          </mxGeometry>
        </mxCell>
        <mxCell id="mzcOnq8qJf74-Bhg__HV-18" value="" style="endArrow=none;html=1;rounded=0;" edge="1" parent="1">
          <mxGeometry width="50" height="50" relative="1" as="geometry">
            <mxPoint x="160" y="560" as="sourcePoint" />
            <mxPoint x="780" y="560" as="targetPoint" />
          </mxGeometry>
        </mxCell>
        <mxCell id="mzcOnq8qJf74-Bhg__HV-21" value="gdev-&amp;gt;base" style="text;html=1;align=center;verticalAlign=middle;resizable=0;points=[];autosize=1;strokeColor=none;fillColor=none;" vertex="1" parent="1">
          <mxGeometry x="550" y="560" width="90" height="30" as="geometry" />
        </mxCell>
        <mxCell id="mzcOnq8qJf74-Bhg__HV-26" style="edgeStyle=orthogonalEdgeStyle;rounded=0;orthogonalLoop=1;jettySize=auto;html=1;" edge="1" parent="1" source="mzcOnq8qJf74-Bhg__HV-25">
          <mxGeometry relative="1" as="geometry">
            <mxPoint x="753" y="560" as="targetPoint" />
          </mxGeometry>
        </mxCell>
        <mxCell id="mzcOnq8qJf74-Bhg__HV-25" value="base" style="text;html=1;align=center;verticalAlign=middle;resizable=0;points=[];autosize=1;strokeColor=none;fillColor=none;" vertex="1" parent="1">
          <mxGeometry x="728" y="326" width="50" height="30" as="geometry" />
        </mxCell>
        <mxCell id="mzcOnq8qJf74-Bhg__HV-28" style="edgeStyle=orthogonalEdgeStyle;rounded=0;orthogonalLoop=1;jettySize=auto;html=1;entryX=0.5;entryY=0;entryDx=0;entryDy=0;" edge="1" parent="1" source="mzcOnq8qJf74-Bhg__HV-27">
          <mxGeometry relative="1" as="geometry">
            <mxPoint x="645" y="400" as="targetPoint" />
          </mxGeometry>
        </mxCell>
        <mxCell id="mzcOnq8qJf74-Bhg__HV-27" value="gdev-&amp;gt;ngpio" style="text;html=1;align=center;verticalAlign=middle;resizable=0;points=[];autosize=1;strokeColor=none;fillColor=none;" vertex="1" parent="1">
          <mxGeometry x="600" y="326" width="90" height="30" as="geometry" />
        </mxCell>
        <mxCell id="mzcOnq8qJf74-Bhg__HV-32" style="edgeStyle=orthogonalEdgeStyle;rounded=0;orthogonalLoop=1;jettySize=auto;html=1;entryX=0.5;entryY=0;entryDx=0;entryDy=0;" edge="1" parent="1" source="mzcOnq8qJf74-Bhg__HV-31" target="mzcOnq8qJf74-Bhg__HV-46">
          <mxGeometry relative="1" as="geometry">
            <mxPoint x="889" y="400" as="targetPoint" />
            <Array as="points">
              <mxPoint x="809" y="370" />
              <mxPoint x="809" y="370" />
            </Array>
          </mxGeometry>
        </mxCell>
        <mxCell id="mzcOnq8qJf74-Bhg__HV-31" value="ngpio" style="text;html=1;align=center;verticalAlign=middle;resizable=0;points=[];autosize=1;strokeColor=none;fillColor=none;" vertex="1" parent="1">
          <mxGeometry x="784" y="326" width="50" height="30" as="geometry" />
        </mxCell>
        <mxCell id="mzcOnq8qJf74-Bhg__HV-41" value="" style="rounded=1;whiteSpace=wrap;html=1;fillColor=#A9C4EB;" vertex="1" parent="1">
          <mxGeometry x="170" y="400" width="110" height="110" as="geometry" />
        </mxCell>
        <mxCell id="mzcOnq8qJf74-Bhg__HV-42" value="" style="rounded=1;whiteSpace=wrap;html=1;fillColor=#A9C4EB;" vertex="1" parent="1">
          <mxGeometry x="310" y="400" width="110" height="110" as="geometry" />
        </mxCell>
        <mxCell id="mzcOnq8qJf74-Bhg__HV-43" value="" style="rounded=1;whiteSpace=wrap;html=1;fillColor=#A9C4EB;" vertex="1" parent="1">
          <mxGeometry x="450" y="400" width="110" height="110" as="geometry" />
        </mxCell>
        <mxCell id="mzcOnq8qJf74-Bhg__HV-44" value="" style="rounded=1;whiteSpace=wrap;html=1;fillColor=#A9C4EB;" vertex="1" parent="1">
          <mxGeometry x="590" y="400" width="110" height="110" as="geometry" />
        </mxCell>
        <mxCell id="mzcOnq8qJf74-Bhg__HV-46" value="" style="rounded=1;whiteSpace=wrap;html=1;fillColor=#7EA6E0;" vertex="1" parent="1">
          <mxGeometry x="754" y="400" width="110" height="110" as="geometry" />
        </mxCell>
        <mxCell id="mzcOnq8qJf74-Bhg__HV-47" style="edgeStyle=orthogonalEdgeStyle;rounded=0;orthogonalLoop=1;jettySize=auto;html=1;exitX=0;exitY=0.5;exitDx=0;exitDy=0;entryX=0.444;entryY=0;entryDx=0;entryDy=0;entryPerimeter=0;" edge="1" parent="1" source="mzcOnq8qJf74-Bhg__HV-44" target="mzcOnq8qJf74-Bhg__HV-21">
          <mxGeometry relative="1" as="geometry">
            <Array as="points">
              <mxPoint x="590" y="500" />
              <mxPoint x="590" y="500" />
            </Array>
          </mxGeometry>
        </mxCell>
        <mxCell id="mzcOnq8qJf74-Bhg__HV-48" value="" style="shape=singleArrow;direction=west;whiteSpace=wrap;html=1;" vertex="1" parent="1">
          <mxGeometry x="710" y="440" width="35" height="30" as="geometry" />
        </mxCell>
      </root>
    </mxGraphModel>
  </diagram>
</mxfile>
